HIERARCHY
ROOT Hips
{
  OFFSET -266.129 83.8661 903.207
  CHANNELS 6 Xposition Yposition Zposition Zrotation Xrotation Yrotation
  JOINT Spine
  {
    OFFSET 0 8 0
    CHANNELS 6 Xposition Yposition Zposition Zrotation Xrotation Yrotation
    JOINT Spine1
    {
      OFFSET 0 8 0
      CHANNELS 6 Xposition Yposition Zposition Zrotation Xrotation Yrotation
      JOINT Spine2
      {
        OFFSET 0 8 0
        CHANNELS 6 Xposition Yposition Zposition Zrotation Xrotation Yrotation
        JOINT Spine3
        {
          OFFSET 0 8 0
          CHANNELS 6 Xposition Yposition Zposition Zrotation Xrotation Yrotation
          JOINT Neck
          {
            OFFSET 0 17 0
            CHANNELS 6 Xposition Yposition Zposition Zrotation Xrotation Yrotation
            JOINT Head
            {
              OFFSET 0 10.8 0
              CHANNELS 6 Xposition Yposition Zposition Zrotation Xrotation Yrotation
              End Site
              {
                OFFSET 0 20.25 0
              }
            }
          }
          JOINT LeftShoulder
          {
            OFFSET 5 17 0
            CHANNELS 6 Xposition Yposition Zposition Zrotation Xrotation Yrotation
            JOINT LeftShoulder2
            {
              OFFSET 6.45 0 0
              CHANNELS 6 Xposition Yposition Zposition Zrotation Xrotation Yrotation
              JOINT LeftArm
              {
                OFFSET 6.45 0 0
                CHANNELS 6 Xposition Yposition Zposition Zrotation Xrotation Yrotation
                JOINT LeftForeArm
                {
                  OFFSET 0 -32.4 -2
                  CHANNELS 6 Xposition Yposition Zposition Zrotation Xrotation Yrotation
                  JOINT LeftHand
                  {
                    OFFSET 0 -25.65 2
                    CHANNELS 6 Xposition Yposition Zposition Zrotation Xrotation Yrotation
                    JOINT LeftHandThumb1
                    {
                      OFFSET -0.5 -1.5 2.65
                      CHANNELS 6 Xposition Yposition Zposition Zrotation Xrotation Yrotation
                      JOINT LeftHandThumb2
                      {
                        OFFSET 0 -3.8 3.7
                        CHANNELS 6 Xposition Yposition Zposition Zrotation Xrotation Yrotation
                        JOINT LeftHandThumb3
                        {
                          OFFSET 0 -3 2.7
                          CHANNELS 6 Xposition Yposition Zposition Zrotation Xrotation Yrotation
                          End Site
                          {
                            OFFSET 0 -2.3 1.8
                          }
                        }
                      }
                    }
                    JOINT LeftHandIndex
                    {
                      OFFSET 0 -1.9 1.6
                      CHANNELS 6 Xposition Yposition Zposition Zrotation Xrotation Yrotation
                      JOINT LeftHandIndex1
                      {
                        OFFSET 0 -8.3 1.9
                        CHANNELS 6 Xposition Yposition Zposition Zrotation Xrotation Yrotation
                        JOINT LeftHandIndex2
                        {
                          OFFSET 0 -4.5 0
                          CHANNELS 6 Xposition Yposition Zposition Zrotation Xrotation Yrotation
                          JOINT LeftHandIndex3
                          {
                            OFFSET 0 -3.4 0
                            CHANNELS 6 Xposition Yposition Zposition Zrotation Xrotation Yrotation
                            End Site
                            {
                              OFFSET 0 -2.6 0
                            }
                          }
                        }
                      }
                    }
                    JOINT LeftHandMiddle
                    {
                      OFFSET -0.25 -2.2 0.4
                      CHANNELS 6 Xposition Yposition Zposition Zrotation Xrotation Yrotation
                      JOINT LeftHandMiddle1
                      {
                        OFFSET 0 -8.3 1
                        CHANNELS 6 Xposition Yposition Zposition Zrotation Xrotation Yrotation
                        JOINT LeftHandMiddle2
                        {
                          OFFSET 0 -4.65 0
                          CHANNELS 6 Xposition Yposition Zposition Zrotation Xrotation Yrotation
                          JOINT LeftHandMiddle3
                          {
                            OFFSET 0 -3.3 0
                            CHANNELS 6 Xposition Yposition Zposition Zrotation Xrotation Yrotation
                            End Site
                            {
                              OFFSET 0 -2.7 0
                            }
                          }
                        }
                      }
                    }
                    JOINT LeftHandRing
                    {
                      OFFSET -0.5 -2.15 -0.8
                      CHANNELS 6 Xposition Yposition Zposition Zrotation Xrotation Yrotation
                      JOINT LeftHandRing1
                      {
                        OFFSET 0 -7.75 -0.2
                        CHANNELS 6 Xposition Yposition Zposition Zrotation Xrotation Yrotation
                        JOINT LeftHandRing2
                        {
                          OFFSET 0 -3.8 0
                          CHANNELS 6 Xposition Yposition Zposition Zrotation Xrotation Yrotation
                          JOINT LeftHandRing3
                          {
                            OFFSET 0 -3.4 0
                            CHANNELS 6 Xposition Yposition Zposition Zrotation Xrotation Yrotation
                            End Site
                            {
                              OFFSET 0 -2.6 0
                            }
                          }
                        }
                      }
                    }
                    JOINT LeftHandPinky
                    {
                      OFFSET -0.75 -1.75 -1.85
                      CHANNELS 6 Xposition Yposition Zposition Zrotation Xrotation Yrotation
                      JOINT LeftHandPinky1
                      {
                        OFFSET 0 -7.15 -1
                        CHANNELS 6 Xposition Yposition Zposition Zrotation Xrotation Yrotation
                        JOINT LeftHandPinky2
                        {
                          OFFSET 0 -3 0
                          CHANNELS 6 Xposition Yposition Zposition Zrotation Xrotation Yrotation
                          JOINT LeftHandPinky3
                          {
                            OFFSET 0 -2.35 0
                            CHANNELS 6 Xposition Yposition Zposition Zrotation Xrotation Yrotation
                            End Site
                            {
                              OFFSET 0 -2.1 0
                            }
                          }
                        }
                      }
                    }
                  }
                }
              }
            }
          }
          JOINT RightShoulder
          {
            OFFSET -5 17 0
            CHANNELS 6 Xposition Yposition Zposition Zrotation Xrotation Yrotation
            JOINT RightShoulder2
            {
              OFFSET -6.45 0 0
              CHANNELS 6 Xposition Yposition Zposition Zrotation Xrotation Yrotation
              JOINT RightArm
              {
                OFFSET -6.45 0 0
                CHANNELS 6 Xposition Yposition Zposition Zrotation Xrotation Yrotation
                JOINT RightForeArm
                {
                  OFFSET 0 -32.4 -2
                  CHANNELS 6 Xposition Yposition Zposition Zrotation Xrotation Yrotation
                  JOINT RightHand
                  {
                    OFFSET 0 -25.65 2
                    CHANNELS 6 Xposition Yposition Zposition Zrotation Xrotation Yrotation
                    JOINT RightHandThumb1
                    {
                      OFFSET 0.5 -1.5 2.65
                      CHANNELS 6 Xposition Yposition Zposition Zrotation Xrotation Yrotation
                      JOINT RightHandThumb2
                      {
                        OFFSET 0 -3.8 3.7
                        CHANNELS 6 Xposition Yposition Zposition Zrotation Xrotation Yrotation
                        JOINT RightHandThumb3
                        {
                          OFFSET 0 -3 2.7
                          CHANNELS 6 Xposition Yposition Zposition Zrotation Xrotation Yrotation
                          End Site
                          {
                            OFFSET 0 -2.3 1.8
                          }
                        }
                      }
                    }
                    JOINT RightHandIndex
                    {
                      OFFSET 0 -1.9 1.6
                      CHANNELS 6 Xposition Yposition Zposition Zrotation Xrotation Yrotation
                      JOINT RightHandIndex1
                      {
                        OFFSET 0 -8.3 1.9
                        CHANNELS 6 Xposition Yposition Zposition Zrotation Xrotation Yrotation
                        JOINT RightHandIndex2
                        {
                          OFFSET 0 -4.5 0
                          CHANNELS 6 Xposition Yposition Zposition Zrotation Xrotation Yrotation
                          JOINT RightHandIndex3
                          {
                            OFFSET 0 -3.4 0
                            CHANNELS 6 Xposition Yposition Zposition Zrotation Xrotation Yrotation
                            End Site
                            {
                              OFFSET 0 -2.6 0
                            }
                          }
                        }
                      }
                    }
                    JOINT RightHandMiddle
                    {
                      OFFSET 0.25 -2.2 0.4
                      CHANNELS 6 Xposition Yposition Zposition Zrotation Xrotation Yrotation
                      JOINT RightHandMiddle1
                      {
                        OFFSET 0 -8.3 1
                        CHANNELS 6 Xposition Yposition Zposition Zrotation Xrotation Yrotation
                        JOINT RightHandMiddle2
                        {
                          OFFSET 0 -4.65 0
                          CHANNELS 6 Xposition Yposition Zposition Zrotation Xrotation Yrotation
                          JOINT RightHandMiddle3
                          {
                            OFFSET 0 -3.3 0
                            CHANNELS 6 Xposition Yposition Zposition Zrotation Xrotation Yrotation
                            End Site
                            {
                              OFFSET 0 -2.7 0
                            }
                          }
                        }
                      }
                    }
                    JOINT RightHandRing
                    {
                      OFFSET 0.5 -2.15 -0.8
                      CHANNELS 6 Xposition Yposition Zposition Zrotation Xrotation Yrotation
                      JOINT RightHandRing1
                      {
                        OFFSET 0 -7.75 -0.2
                        CHANNELS 6 Xposition Yposition Zposition Zrotation Xrotation Yrotation
                        JOINT RightHandRing2
                        {
                          OFFSET 0 -3.8 0
                          CHANNELS 6 Xposition Yposition Zposition Zrotation Xrotation Yrotation
                          JOINT RightHandRing3
                          {
                            OFFSET 0 -3.4 0
                            CHANNELS 6 Xposition Yposition Zposition Zrotation Xrotation Yrotation
                            End Site
                            {
                              OFFSET 0 -2.6 0
                            }
                          }
                        }
                      }
                    }
                    JOINT RightHandPinky
                    {
                      OFFSET 0.75 -1.75 -1.85
                      CHANNELS 6 Xposition Yposition Zposition Zrotation Xrotation Yrotation
                      JOINT RightHandPinky1
                      {
                        OFFSET 0 -7.15 -1
                        CHANNELS 6 Xposition Yposition Zposition Zrotation Xrotation Yrotation
                        JOINT RightHandPinky2
                        {
                          OFFSET 0 -3 0
                          CHANNELS 6 Xposition Yposition Zposition Zrotation Xrotation Yrotation
                          JOINT RightHandPinky3
                          {
                            OFFSET 0 -2.35 0
                            CHANNELS 6 Xposition Yposition Zposition Zrotation Xrotation Yrotation
                            End Site
                            {
                              OFFSET 0 -2.1 0
                            }
                          }
                        }
                      }
                    }
                  }
                }
              }
            }
          }
        }
      }
    }
  }
  JOINT LeftUpLeg
  {
    OFFSET 8 0 0
    CHANNELS 6 Xposition Yposition Zposition Zrotation Xrotation Yrotation
    JOINT LeftLeg
    {
      OFFSET 0 -45 -1
      CHANNELS 6 Xposition Yposition Zposition Zrotation Xrotation Yrotation
      JOINT LeftFoot
      {
        OFFSET 0 -41 -2
        CHANNELS 6 Xposition Yposition Zposition Zrotation Xrotation Yrotation
        JOINT LeftToeBase
        {
          OFFSET 0 -7.5 12.5
          CHANNELS 6 Xposition Yposition Zposition Zrotation Xrotation Yrotation
          JOINT LeftFootToe
          {
            OFFSET 0 0 4
            CHANNELS 6 Xposition Yposition Zposition Zrotation Xrotation Yrotation
            End Site
            {
              OFFSET 0 0 0
            }
          }
        }
      }
    }
  }
  JOINT RightUpLeg
  {
    OFFSET -8 0 0
    CHANNELS 6 Xposition Yposition Zposition Zrotation Xrotation Yrotation
    JOINT RightLeg
    {
      OFFSET 0 -45 -1
      CHANNELS 6 Xposition Yposition Zposition Zrotation Xrotation Yrotation
      JOINT RightFoot
      {
        OFFSET 0 -41 -2
        CHANNELS 6 Xposition Yposition Zposition Zrotation Xrotation Yrotation
        JOINT RightToeBase
        {
          OFFSET 0 -7.5 12.5
          CHANNELS 6 Xposition Yposition Zposition Zrotation Xrotation Yrotation
          JOINT RightFootToe
          {
            OFFSET 0 0 4
            CHANNELS 6 Xposition Yposition Zposition Zrotation Xrotation Yrotation
            End Site
            {
              OFFSET 0 0 0
            }
          }
        }
      }
    }
  }
}
MOTION
Frames:	3
Frame Time:	0.0111111
-246.181 74.5121 915.63 -26.0342 9.41395 174.016 -8.52651e-14 8 0 5.46737 16.108 -15.785 0 8 0 -4.50701 12.4534 5.30346 -2.84217e-14 8 0 -2.10344 6.30198 2.5226 -5.68434e-14 8 1.13687e-13 -2.08645 6.25479 2.5026 -5.68434e-14 17 0 -1.10037 -3.37639 -2.20132 2.84217e-14 10.8 0 -2.78279 -7.81524 -5.26299 5 17 0 -8.50851 -4.10921 3.06706 6.45 0 0 -1.21323 -0.107505 4.44968 6.45 5.68434e-14 0 35.8648 14.6011 30.1897 0 -32.4 -2 -99.1179 -59.9675 -95.06 2.84217e-14 -25.65 2 -24.275 -7.75911 -24.5195 -0.5 -1.5 2.65 29.5139 -18.5942 19.4885 2.84217e-14 -3.8 3.7 -0.0462547 4.25037 -0.00381795 -5.68434e-14 -3 2.7 0.033013 0.195715 0.000589552 0 -1.9 1.6 6.36111e-15 -6.36111e-15 -0 1.13687e-13 -8.3 1.9 -39.6741 -31.3431 -10.4578 2.27374e-13 -4.5 -1.42109e-14 -0.000626353 0.000398333 1.40148e-05 -1.13687e-13 -3.4 1.42109e-14 -9.24917e-06 -1.10697e-05 -2.92076e-06 -0.25 -2.2 0.4 6.36111e-15 -6.36111e-15 -0 0 -8.3 1 -61.5603 -19.0718 -6.77829 0 -4.65 0 -90.0004 0.0392622 -0.00843022 -1.13687e-13 -3.3 -1.7053e-13 -89.9963 -0.00596367 -1.0698e-06 -0.5 -2.15 -0.8 6.36111e-15 -6.36111e-15 -0 -1.13687e-13 -7.75 -0.2 -11.8114 -17.5377 -1.34404 0 -3.8 0 -0.000600995 0.0049589 -0.00030369 1.13687e-13 -3.4 -2.84217e-14 1.67795e-07 1.96309e-05 -0.000276921 -0.75 -1.75 -1.85 6.36111e-15 -6.36111e-15 -0 0 -7.15 -1 -26.2294 -29.4932 -3.09664 -1.13687e-13 -3 0 -2.23326e-06 0.00489298 -1.322e-05 0 -2.35 2.84217e-14 -7.1352e-06 1.61152e-05 -6.74512e-06 -5 17 -1.13687e-13 4.87728 -2.72359 2.92259 -6.45 5.68434e-14 0 -1.66485 0.0662218 -6.11366 -6.45 -5.68434e-14 0 -48.4395 -22.9682 26.6073 1.13687e-13 -32.4 -2 -77.3206 -54.3613 -86.6761 0 -25.65 2 7.53961 -1.97104 6.66583 0.5 -1.5 2.65 -6.73624 -14.5716 -0.604409 2.84217e-14 -3.8 3.7 -1.40904 21.5363 -0.785751 0 -3 2.7 0.0331179 8.70836 -0.0156709 0 -1.9 1.6 4.77083e-15 3.18055e-15 3.97569e-16 0 -8.3 1.9 16.2927 -2.97548 0.32195 0 -4.5 -1.42109e-14 -5.80541e-08 -4.99914e-07 7.59784e-05 0 -3.4 2.84217e-14 5.60112e-07 -8.65457e-07 7.36744e-05 0.25 -2.2 0.4 4.77083e-15 3.18055e-15 3.97569e-16 0 -8.3 1 23.0359 1.74903 -1.73432 1.13687e-13 -4.65 2.84217e-14 25.7561 46.5117 18.7349 -1.13687e-13 -3.3 -2.84217e-14 49.3284 0.139053 0.00989911 0.5 -2.15 -0.8 4.77083e-15 3.18055e-15 3.97569e-16 -5.68434e-14 -7.75 -0.2 52.2758 3.81209 -6.06995 0 -3.8 0 27.5707 38.4305 13.112 -1.13687e-13 -3.4 -2.84217e-14 45.7121 0.0499966 -0.000948639 0.75 -1.75 -1.85 4.77083e-15 3.18055e-15 3.97569e-16 -5.68434e-14 -7.15 -1 75.9702 -3.27388 -5.66828 2.27374e-13 -3 -1.13687e-13 7.58189 38.2479 14.9614 -1.13687e-13 -2.35 0 33.8585 0.00679446 9.43389e-05 8 4.26326e-14 -2.27374e-13 9.05423 -30.4441 -168.889 -5.68434e-14 -45 -1 36.5188 -50.9815 128.289 0 -41 -2 -2.87391 -3.21473 70.1846 0 -7.5 12.5 -0.000723739 -14.9109 9.12772e-06 0 -2.66454e-15 4 13.6963 14.0003 44.253 -8 -2.84217e-14 0 -12.1015 -52.7968 -120.041 -5.68434e-14 -45 -1 -77.5405 -25.8633 68.577 -5.68434e-14 -41 -2 -22.5719 -19.261 33.9296 5.68434e-14 -7.5 12.5 0.00990325 -0.00259387 -0.000555213 0 0 4 -10.2292 -5.38453 35.0277 
-246.29 74.6789 915.368 -26.19 9.29481 173.865 -5.68434e-14 8 0 5.33148 16.1198 -15.7838 0 8 -2.27374e-13 -4.54403 12.4362 5.29524 2.84217e-14 8 0 -2.12242 6.29366 2.51793 -2.84217e-14 8 1.13687e-13 -2.10529 6.24659 2.49802 0 17 0 -1.12844 -3.41133 -2.12726 0 10.8 1.13687e-13 -2.84403 -7.89772 -5.09343 5 17 -1.13687e-13 -8.50802 -4.21123 3.1133 6.45 -5.68434e-14 -1.13687e-13 -1.21574 -0.111609 4.46226 6.45 0 0 35.3655 15.2247 30.4493 5.68434e-14 -32.4 -2 -99.8112 -59.7365 -96.4799 5.68434e-14 -25.65 2 -24.5622 -7.53588 -24.3595 -0.5 -1.5 2.65 29.9504 -18.6109 20.2042 -5.68434e-14 -3.8 3.7 -0.0569252 4.18964 -0.00277907 -2.84217e-14 -3 2.7 0.0323558 0.0676046 0.000823559 0 -1.9 1.6 3.18055e-15 -1.11319e-14 4.77083e-15 0 -8.3 1.9 -39.8853 -31.3114 -10.5012 1.13687e-13 -4.5 -4.26326e-14 -0.000626353 0.000398333 1.40148e-05 0 -3.4 2.84217e-14 -9.24917e-06 -1.10697e-05 -2.92076e-06 -0.25 -2.2 0.4 3.18055e-15 -1.11319e-14 4.77083e-15 0 -8.3 1 -62.204 -18.5908 -6.54929 0 -4.65 0 -90.0004 0.0392807 -0.00974342 -1.42109e-13 -3.3 -1.13687e-13 -89.9853 -0.00644931 -5.58601e-07 -0.5 -2.15 -0.8 3.18055e-15 -1.11319e-14 4.77083e-15 0 -7.75 -0.2 -11.8546 -17.6261 -1.36852 0 -3.8 2.84217e-14 -0.000600995 0.0049589 -0.00030369 0 -3.4 -2.84217e-14 1.67795e-07 1.96309e-05 -0.000276921 -0.75 -1.75 -1.85 3.18055e-15 -1.11319e-14 4.77083e-15 -5.68434e-14 -7.15 -1 -26.8372 -29.5403 -3.18807 1.13687e-13 -3 2.84217e-14 -2.23326e-06 0.00489298 -1.322e-05 -1.13687e-13 -2.35 2.84217e-14 -7.1352e-06 1.61152e-05 -6.74512e-06 -5 17 -2.27374e-13 4.91144 -2.77646 2.99948 -6.45 5.68434e-14 0 -1.66422 0.0663606 -6.13093 -6.45 5.68434e-14 0 -48.6664 -23.2642 26.8115 1.13687e-13 -32.4 -2 -77.223 -54.3926 -86.3842 0 -25.65 2 7.40743 -1.90832 6.99003 0.5 -1.5 2.65 -6.51349 -14.3434 -0.355028 2.84217e-14 -3.8 3.7 -1.41159 21.5358 -0.786697 -2.84217e-14 -3 2.7 0.0548964 8.09628 -0.0209334 0 -1.9 1.6 1.59028e-15 4.77083e-15 -0 0 -8.3 1.9 16.6223 -2.98185 0.327326 0 -4.5 0 -5.80541e-08 -4.99914e-07 7.59784e-05 1.13687e-13 -3.4 -2.84217e-14 5.60112e-07 -8.65457e-07 7.36744e-05 0.25 -2.2 0.4 1.59028e-15 4.77083e-15 -0 0 -8.3 1 23.1375 1.81032 -1.75062 0 -4.65 4.26326e-14 25.9658 46.5113 18.7357 0 -3.3 2.84217e-14 49.5532 0.139624 0.0105362 0.5 -2.15 -0.8 1.59028e-15 4.77083e-15 -0 5.68434e-14 -7.75 -0.2 52.4356 3.87351 -6.12464 1.13687e-13 -3.8 -2.84217e-14 27.5531 38.4932 13.1711 0 -3.4 -8.52651e-14 45.7861 0.0508178 -0.000940358 0.75 -1.75 -1.85 1.59028e-15 4.77083e-15 -0 0 -7.15 -1 76.1062 -3.23152 -5.73973 1.13687e-13 -3 -1.13687e-13 7.61576 38.2478 14.9615 0 -2.35 0 33.8814 0.00694088 0.000211162 8 0 -1.13687e-13 8.72483 -30.38 -169.261 -5.68434e-14 -45 -1 36.6318 -50.7472 128.483 -1.13687e-13 -41 -2 -2.86955 -3.25207 70.4503 5.68434e-14 -7.5 12.5 -0.000716721 -15.1545 9.13815e-06 -5.68434e-14 -3.55271e-15 4 13.6449 14.1619 44.2391 -8 -4.26326e-14 0 -12.1688 -52.9456 -119.875 0 -45 -1 -77.5648 -25.7738 68.6396 0 -41 -2 -22.5202 -19.1761 33.8607 5.68434e-14 -7.5 12.5 0.0116153 -0.00302242 -0.000555213 0 0 4 -10.4376 -5.39694 34.9694 
-246.391 74.8167 915.151 -26.3626 9.18828 173.727 -5.68434e-14 8 0 5.17716 16.1408 -15.7803 -2.84217e-14 8 0 -4.5875 12.4276 5.28921 0 8 0 -2.14435 6.28979 2.51356 -5.68434e-14 8 1.13687e-13 -2.12705 6.24273 2.49364 -5.68434e-14 17 0 -1.1468 -3.44675 -2.05636 0 10.8 -1.13687e-13 -2.88271 -7.98145 -4.93046 5 17 -1.13687e-13 -8.51055 -4.31801 3.14894 6.45 -1.13687e-13 0 -1.22053 -0.113443 4.47631 6.45 0 -1.13687e-13 34.9021 15.8339 30.7663 0 -32.4 -2 -100.469 -59.4732 -97.8753 1.13687e-13 -25.65 2 -24.8817 -7.49617 -24.4567 -0.5 -1.5 2.65 30.3376 -18.5346 20.4476 0 -3.8 3.7 -0.0558434 4.3 -0.00146038 0 -3 2.7 0.0316492 -0.0326971 0.00106618 0 -1.9 1.6 9.54166e-15 -4.77083e-15 1.59028e-15 0 -8.3 1.9 -40.3734 -31.2353 -10.6067 1.13687e-13 -4.5 2.84217e-14 -0.000626353 0.000398333 1.40148e-05 -1.13687e-13 -3.4 2.84217e-14 -9.24917e-06 -1.10697e-05 -2.92076e-06 -0.25 -2.2 0.4 9.54166e-15 -4.77083e-15 1.59028e-15 -5.68434e-14 -8.3 1 -62.9696 -18.0762 -6.30758 0 -4.65 0 -90.0004 0.0392636 -0.0110645 -1.42109e-13 -3.3 -5.68434e-14 -89.9619 -0.00690808 -2.91378e-08 -0.5 -2.15 -0.8 9.54166e-15 -4.77083e-15 1.59028e-15 -5.68434e-14 -7.75 -0.2 -11.8533 -17.6726 -1.39085 1.13687e-13 -3.8 2.84217e-14 -0.000600995 0.0049589 -0.00030369 1.13687e-13 -3.4 -5.68434e-14 1.67795e-07 1.96309e-05 -0.000276921 -0.75 -1.75 -1.85 9.54166e-15 -4.77083e-15 1.59028e-15 0 -7.15 -1 -27.3621 -29.5834 -3.26975 0 -3 -2.84217e-14 -2.23326e-06 0.00489298 -1.322e-05 0 -2.35 0 -7.1352e-06 1.61152e-05 -6.74512e-06 -5 17 -1.13687e-13 4.96351 -2.82587 3.0981 -6.45 -5.68434e-14 -1.13687e-13 -1.66337 0.0682901 -6.13978 -6.45 0 0 -48.9271 -23.5565 27.0768 0 -32.4 -2 -77.0529 -54.4847 -86.1109 2.84217e-14 -25.65 2 7.25915 -1.84712 7.61515 0.5 -1.5 2.65 -6.28942 -14.0665 -0.330949 2.84217e-14 -3.8 3.7 -1.41416 21.5034 -0.787111 0 -3 2.7 0.0729671 7.38279 -0.0305303 0 -1.9 1.6 -1.59028e-15 4.77083e-15 1.59028e-15 0 -8.3 1.9 16.7911 -2.99796 0.332855 -1.13687e-13 -4.5 1.42109e-14 -5.80541e-08 -4.99914e-07 7.59784e-05 1.13687e-13 -3.4 2.84217e-14 5.60112e-07 -8.65457e-07 7.36744e-05 0.25 -2.2 0.4 -1.59028e-15 4.77083e-15 1.59028e-15 5.68434e-14 -8.3 1 23.2082 1.92034 -1.77692 0 -4.65 4.26326e-14 26.0992 46.5109 18.7365 0 -3.3 2.84217e-14 49.6948 0.140181 0.0111773 0.5 -2.15 -0.8 -1.59028e-15 4.77083e-15 1.59028e-15 0 -7.75 -0.2 52.6174 3.96733 -6.20198 -1.13687e-13 -3.8 2.84217e-14 27.5518 38.5061 13.1814 0 -3.4 -5.68434e-14 45.802 0.0516367 -0.000932533 0.75 -1.75 -1.85 -1.59028e-15 4.77083e-15 1.59028e-15 0 -7.15 -1 76.2732 -3.17029 -5.83395 2.27374e-13 -3 -1.42109e-13 7.67201 38.2478 14.9616 1.13687e-13 -2.35 0 33.9193 0.00708754 0.000353554 8 2.84217e-14 0 8.40341 -30.361 -169.607 -1.13687e-13 -45 -1 36.7338 -50.553 128.652 0 -41 -2 -2.91891 -3.24966 70.5527 1.13687e-13 -7.5 12.5 -0.000712542 -15.4632 9.15164e-06 -5.68434e-14 -4.44089e-15 4 13.6076 14.3509 44.3123 -8 0 0 -12.2337 -53.0878 -119.691 0 -45 -1 -77.5751 -25.6783 68.709 0 -41 -2 -22.4722 -19.0695 33.8014 0 -7.5 12.5 0.0127165 -0.00341798 -0.000555213 -5.68434e-14 0 4 -10.6571 -5.40632 34.9042 
